<svg width="40" height="40" viewBox="0 0 28 32" fill="none" xmlns="http://www.w3.org/2000/svg">
<path d="M24.9635 3.06365C21.0998 -0.800025 14.808 -0.800025 10.9484 3.06365L0.243337 13.7605C0.17361 13.8302 0.136696 13.9246 0.136696 14.023C0.136696 14.1215 0.17361 14.2158 0.243337 14.2855L1.75681 15.799C1.82599 15.8679 1.91964 15.9065 2.01726 15.9065C2.11488 15.9065 2.20853 15.8679 2.27771 15.799L12.9828 5.10212C14.3117 3.77322 16.0795 3.04314 17.958 3.04314C19.8365 3.04314 21.6043 3.77322 22.9291 5.10212C24.258 6.43103 24.9881 8.1988 24.9881 10.0732C24.9881 11.9517 24.258 13.7154 22.9291 15.0443L12.0189 25.9504L10.2511 27.7181C8.59822 29.3711 5.9117 29.3711 4.25877 27.7181C3.45896 26.9183 3.02009 25.856 3.02009 24.724C3.02009 23.592 3.45896 22.5297 4.25877 21.7299L15.0828 10.9099C15.3576 10.6392 15.7185 10.4875 16.1041 10.4875H16.1082C16.4937 10.4875 16.8506 10.6392 17.1213 10.9099C17.3961 11.1847 17.5437 11.5457 17.5437 11.9312C17.5437 12.3127 17.392 12.6736 17.1213 12.9443L8.2742 21.7832C8.20447 21.8529 8.16755 21.9472 8.16755 22.0457C8.16755 22.1441 8.20447 22.2385 8.2742 22.3082L9.78767 23.8217C9.85685 23.8905 9.9505 23.9292 10.0481 23.9292C10.1457 23.9292 10.2394 23.8905 10.3086 23.8217L19.1515 14.9787C19.9677 14.1625 20.4148 13.0797 20.4148 11.9271C20.4148 10.7746 19.9636 9.68767 19.1515 8.87556C17.4658 7.18982 14.726 7.19392 13.0402 8.87556L11.9902 9.92966L2.22029 19.6955C1.55719 20.3547 1.03157 21.139 0.673899 22.0029C0.31623 22.8668 0.133632 23.7931 0.136696 24.7281C0.136696 26.6271 0.879079 28.4113 2.22029 29.7525C3.61072 31.1388 5.43181 31.832 7.25291 31.832C9.074 31.832 10.8951 31.1388 12.2814 29.7525L24.9635 17.0787C26.8297 15.2084 27.8633 12.7187 27.8633 10.0732C27.8674 7.42361 26.8338 4.93396 24.9635 3.06365Z" fill="white"/>
</svg>
