<svg width="32" height="31" viewBox="0 0 32 31" fill="none" xmlns="http://www.w3.org/2000/svg">
<path d="M19.0479 0.964657C19.6686 0.964607 20.2786 1.12675 20.8174 1.43502C21.3562 1.74329 21.805 2.18699 22.1195 2.72216L23.4084 4.91824H26.6875C28.0519 4.91824 29.3606 5.46017 30.3256 6.42486C31.2905 7.38955 31.8329 8.698 31.8333 10.0625V25.1042C31.8333 25.7799 31.7002 26.4491 31.4416 27.0734C31.183 27.6977 30.804 28.265 30.3261 28.7428C29.8483 29.2206 29.281 29.5997 28.6567 29.8583C28.0324 30.1169 27.3632 30.25 26.6875 30.25H5.31246C3.9477 30.25 2.63884 29.7078 1.67381 28.7428C0.708775 27.7778 0.166626 26.4689 0.166626 25.1042V10.0625C0.166626 8.69773 0.708775 7.38887 1.67381 6.42384C2.63884 5.45881 3.9477 4.91666 5.31246 4.91666H8.60579L9.99121 2.66199C10.3098 2.143 10.756 1.71434 11.2874 1.41691C11.8188 1.11949 12.4175 0.963235 13.0265 0.963074H19.0479V0.964657ZM19.0479 3.33966H13.0265C12.8532 3.3398 12.682 3.37786 12.525 3.45116C12.368 3.52446 12.229 3.63124 12.1176 3.76399L12.0147 3.90649L10.2841 6.72482C10.178 6.89792 10.0293 7.04091 9.85215 7.14015C9.67502 7.23938 9.47541 7.29155 9.27238 7.29166H5.31404C4.95004 7.29145 4.58956 7.36297 4.2532 7.50212C3.91685 7.64127 3.61121 7.84534 3.35374 8.10266C3.09628 8.35997 2.89204 8.6655 2.75269 9.00177C2.61335 9.33805 2.54163 9.69849 2.54163 10.0625V25.1042C2.54163 26.6337 3.78296 27.875 5.31246 27.875H26.6875C27.4223 27.875 28.1271 27.5831 28.6467 27.0634C29.1664 26.5438 29.4583 25.839 29.4583 25.1042V10.0625C29.4583 9.32762 29.1664 8.62285 28.6467 8.10322C28.1271 7.58358 27.4223 7.29166 26.6875 7.29166H22.7291C22.5221 7.29177 22.3187 7.23776 22.139 7.135C21.9593 7.03224 21.8096 6.88429 21.7047 6.70582L20.0707 3.92391C19.966 3.74567 19.8165 3.59787 19.6371 3.49512C19.4577 3.39238 19.2546 3.33824 19.0479 3.33807V3.33966ZM16 9.66666C17.8896 9.66666 19.7019 10.4173 21.0381 11.7535C22.3743 13.0897 23.125 14.902 23.125 16.7917C23.125 18.6813 22.3743 20.4936 21.0381 21.8298C19.7019 23.166 17.8896 23.9167 16 23.9167C14.1103 23.9167 12.298 23.166 10.9618 21.8298C9.62563 20.4936 8.87496 18.6813 8.87496 16.7917C8.87496 14.902 9.62563 13.0897 10.9618 11.7535C12.298 10.4173 14.1103 9.66666 16 9.66666ZM16 12.0417C15.3762 12.0417 14.7585 12.1645 14.1822 12.4032C13.6059 12.6419 13.0823 12.9918 12.6412 13.4329C12.2001 13.874 11.8502 14.3976 11.6115 14.9739C11.3728 15.5502 11.25 16.1679 11.25 16.7917C11.25 17.4154 11.3728 18.0331 11.6115 18.6094C11.8502 19.1857 12.2001 19.7093 12.6412 20.1504C13.0823 20.5915 13.6059 20.9414 14.1822 21.1801C14.7585 21.4188 15.3762 21.5417 16 21.5417C17.2597 21.5417 18.4679 21.0412 19.3587 20.1504C20.2495 19.2596 20.75 18.0514 20.75 16.7917C20.75 15.5319 20.2495 14.3237 19.3587 13.4329C18.4679 12.5421 17.2597 12.0417 16 12.0417Z" fill="white"/>
</svg>
