<svg width="34" height="27" viewBox="0 0 34 27" fill="none" xmlns="http://www.w3.org/2000/svg">
<path d="M17.0001 18.8269C17.0001 19.2338 16.7535 19.6002 16.3764 19.7533L2.70643 25.3068C1.97151 25.6053 1.19818 24.9703 1.34807 24.1913L3.36893 13.6889C3.39294 13.5641 3.39294 13.4359 3.36893 13.311L1.33709 2.75157C1.18951 1.98457 1.93886 1.35204 2.6702 1.62629L16.3512 6.75666C16.7415 6.90302 17.0001 7.27614 17.0001 7.69299V18.8269Z" fill="white"/>
<path d="M31.635 14.4367L17.8503 19.5864C17.9474 19.3499 18.0001 19.0927 18.0001 18.8269V7.69299C18.0001 7.61602 17.9956 7.53979 17.987 7.4646L31.635 12.5632C32.5017 12.887 32.5018 14.1129 31.635 14.4367ZM2.33006 24.3803L3.36581 18.9975L5.12733 14.6199C5.4165 13.9013 5.4165 13.0987 5.12733 12.3801L3.3658 8.00247L2.31908 2.56262L16.0001 7.69299V18.8269L2.33006 24.3803Z" stroke="white" stroke-width="2"/>
</svg>
