<svg width="24" height="16" viewBox="0 0 24 16" fill="none" xmlns="http://www.w3.org/2000/svg">
<path d="M10.8174 13.6933L4.796 8.98333H22.3167C22.8508 8.98333 23.4625 8.62767 23.4625 8C23.4625 7.37233 22.8508 7.01667 22.3167 7.01667H4.78794L10.7801 2.30673C10.7803 2.30662 10.7804 2.3065 10.7806 2.30638C11.0068 2.12926 11.1574 1.87495 11.1574 1.58333C11.1574 1.29153 11.0066 1.03707 10.7801 0.859935C10.337 0.513355 9.68626 0.513355 9.24318 0.859935L1.03979 7.2766C0.813323 7.45374 0.6625 7.7082 0.6625 8C0.6625 8.2918 0.813323 8.54626 1.03979 8.7234L9.24318 15.1401C9.46867 15.3164 9.74379 15.4 10.0117 15.4C10.3079 15.4 10.5857 15.3213 10.8174 15.1401C11.0439 14.9629 11.1947 14.7085 11.1947 14.4167C11.1947 14.1249 11.0439 13.8704 10.8174 13.6933Z" fill="black" stroke="black" stroke-width="0.8"/>
</svg>
