<svg width="435" height="150" viewBox="0 0 435 150" fill="none" xmlns="http://www.w3.org/2000/svg">
<g filter="url(#filter0_d_2_29)">
<path d="M64.7036 27.0321L11.3212 119.92H118.086L64.7036 27.0321Z" stroke="#343232" stroke-width="5" stroke-miterlimit="10" shape-rendering="crispEdges"/>
</g>
<g filter="url(#filter1_d_2_29)">
<path d="M64.7036 42.2727L24.1361 112.781H105.193L64.7036 42.2727Z" stroke="#343232" stroke-width="5" stroke-miterlimit="10" shape-rendering="crispEdges"/>
</g>
<g filter="url(#filter2_d_2_29)">
<path d="M64.7036 59.0375L37.7372 105.881H91.5913L64.7036 59.0375Z" stroke="#343232" stroke-width="5" stroke-miterlimit="10" shape-rendering="crispEdges"/>
</g>
<g filter="url(#filter3_d_2_29)">
<path d="M64.7037 74.9198L51.0239 98.5824H78.3048L64.7037 74.9198Z" fill="#343232"/>
<path d="M64.7037 74.9198L51.0239 98.5824H78.3048L64.7037 74.9198Z" stroke="#343232" stroke-width="0.5" stroke-miterlimit="10"/>
</g>
<g filter="url(#filter4_d_2_29)">
<path d="M156.483 70.1575H177.126C177.673 70.1575 178.22 70.4124 178.69 70.9221C179.159 71.4318 179.393 72.0265 179.393 72.6211C179.393 73.2158 179.159 73.8105 178.768 74.3202C178.377 74.8299 177.829 75.0847 177.048 75.0847H156.405V107.366C156.405 108.131 156.17 108.81 155.779 109.235C155.388 109.66 154.841 109.83 154.137 109.83C153.825 109.83 153.355 109.66 152.495 109.235C152.026 108.81 151.792 108.216 151.792 107.366V42.6333C151.792 40.9342 152.574 40.1697 154.059 40.1697H176.969C177.517 40.1697 178.064 40.4245 178.533 40.9342C179.002 41.444 179.237 42.0386 179.237 42.6333C179.237 43.2279 179.002 43.8226 178.611 44.3323C178.22 44.842 177.673 45.0969 176.891 45.0969H156.249V70.0726L156.483 70.1575Z" fill="#343232"/>
<path d="M209.184 109.915H190.887C189.324 109.915 188.62 109.066 188.62 107.451V42.7185C188.62 42.2088 188.854 41.6141 189.324 41.1044C189.793 40.5097 190.34 40.2549 190.966 40.2549C191.513 40.2549 192.06 40.5097 192.529 40.9345C192.999 41.3593 193.233 41.9539 193.233 42.8034V105.073H209.262C209.81 105.073 210.357 105.328 210.826 105.837C211.295 106.347 211.53 106.942 211.53 107.536C211.53 108.131 211.295 108.726 210.904 109.235C210.514 109.745 209.966 110 209.184 110V109.915Z" fill="#343232"/>
<path d="M229.514 89.9515L225.057 108.046C224.979 108.641 224.744 109.066 224.275 109.405C223.806 109.745 223.415 109.915 222.868 109.915C222.242 109.915 221.695 109.66 221.226 109.235C220.757 108.811 220.522 108.216 220.522 107.451V106.772L236.63 42.5486C237.021 41.0195 237.724 40.3398 238.819 40.3398C239.914 40.3398 240.617 41.1044 241.008 42.5486L257.038 106.772V107.536C257.116 108.131 256.881 108.726 256.412 109.32C255.943 109.745 255.396 110 254.77 110C254.301 110 253.832 109.83 253.441 109.575C253.05 109.32 252.815 108.811 252.581 108.131L248.124 90.0364H229.436L229.514 89.9515ZM246.951 84.9394L238.819 52.1481L230.687 84.9394H246.873H246.951Z" fill="#343232"/>
<path d="M302.936 43.483L286.907 107.706C286.516 109.235 285.812 109.915 284.717 109.915C283.623 109.915 282.919 109.151 282.528 107.706L266.499 43.483V42.7185C266.421 42.1238 266.655 41.5292 267.124 41.1044C267.593 40.6796 268.141 40.3398 268.766 40.3398C269.157 40.3398 269.47 40.5097 269.783 40.7646C270.174 40.9345 270.565 41.4442 270.877 42.2088L284.717 97.5971L298.557 42.2088C298.635 41.784 298.87 41.3593 299.261 40.9345C299.652 40.5947 300.121 40.4248 300.747 40.3398C301.372 40.3398 301.92 40.5947 302.389 41.0195C302.858 41.4442 303.092 42.0389 303.092 42.8034V43.483H302.936Z" fill="#343232"/>
<path d="M344.378 94.9634C344.378 99.041 343.048 102.524 340.312 105.497C337.575 108.471 334.369 109.915 330.538 109.915H325.924C322.406 109.915 319.278 108.471 316.385 105.582C313.492 102.694 312.163 99.126 312.163 94.9634V55.1211C312.163 51.1284 313.492 47.6454 316.15 44.6721C318.809 41.6988 322.093 40.1697 325.924 40.1697H330.538C334.291 40.1697 337.497 41.6139 340.234 44.5022C342.97 47.3906 344.299 50.9585 344.299 55.1211V94.9634H344.378ZM339.764 94.9634V55.1211C339.764 52.4027 338.826 50.024 337.028 48.0702C335.229 46.1163 333.04 45.0969 330.538 45.0969H325.924C323.422 45.0969 321.233 46.0313 319.435 47.9852C317.636 49.9391 316.776 52.2328 316.776 55.0362V94.8784C316.776 97.5969 317.714 99.8905 319.513 101.844C321.311 103.798 323.5 104.818 325.924 104.818H330.538C333.04 104.818 335.151 103.883 337.028 102.014C338.904 100.145 339.764 97.7668 339.764 94.8784V94.9634Z" fill="#343232"/>
<path d="M371.276 80.0119L385.35 106.177C385.35 106.177 385.663 106.942 385.663 107.451C385.663 108.046 385.428 108.641 384.959 109.235C384.49 109.66 383.943 109.915 383.317 109.915C382.926 109.915 382.535 109.915 382.301 109.66C381.988 109.405 381.753 109.065 381.441 108.641L366.037 79.927H358.139V107.366C358.139 108.131 357.905 108.81 357.514 109.235C357.123 109.66 356.576 109.83 355.872 109.83C355.559 109.83 355.09 109.66 354.23 109.235C353.761 108.81 353.526 108.216 353.526 107.366V42.6333C353.526 40.9342 354.308 40.1697 355.794 40.1697H371.823C375.576 40.1697 378.782 41.6139 381.519 44.5022C384.255 47.3906 385.585 50.9585 385.585 55.1211V65.0605C385.585 69.1381 384.255 72.6211 381.519 75.5944C378.782 78.5677 375.576 80.0119 371.745 80.0119H371.119H371.276ZM358.139 74.9998H371.901C374.403 74.9998 376.514 74.0653 378.391 72.1964C380.268 70.3274 381.128 67.9488 381.128 65.1454V55.2061C381.128 52.4876 380.189 50.109 378.391 48.1551C376.593 46.2012 374.403 45.1818 371.901 45.1818H358.139V74.9998Z" fill="#343232"/>
<path d="M425.775 43.7379C425.775 43.7379 426.166 44.0777 426.322 44.3325C426.479 44.5874 426.635 45.0971 426.792 45.7767C426.792 46.3714 426.557 46.966 426.088 47.5607C425.619 48.0704 425.071 48.4102 424.446 48.4102L423.117 47.9854C420.771 46.2015 418.112 45.267 415.219 45.267H408.495C405.836 45.267 403.647 46.2864 401.927 48.2403C400.206 50.1942 399.346 52.5728 399.346 55.2063L399.503 57.1602L399.659 58.0947L399.972 59.0291C400.363 59.8786 401.067 60.983 402.083 62.2573L422.491 84.5146C423.82 85.9587 424.837 87.5728 425.541 89.3568L425.931 90.4612L426.401 92.3301L426.557 93.4345V94.8786C426.557 98.8714 425.306 102.354 422.804 105.158C420.145 108.216 416.861 109.745 412.795 109.745H406.149C402.318 109.745 398.799 108.556 395.75 106.177L394.968 105.243L394.733 104.138C394.733 103.629 394.968 103.119 395.359 102.524C395.75 101.93 396.297 101.59 396.844 101.59L398.173 102.015C400.597 103.799 403.178 104.648 406.071 104.648H412.717C415.219 104.648 417.33 103.629 419.207 101.675C421.005 99.7209 421.944 97.3422 421.944 94.6238L421.787 92.9248C421.787 92.9248 421.709 92.3301 421.631 92.0752C421.553 91.8204 421.396 91.4806 421.318 91.1408C421.005 90.0364 420.302 88.8471 419.285 87.5728L398.799 65.3155C397.704 64.1262 396.688 62.5121 395.671 60.4733C395.046 58.6893 394.733 56.8204 394.733 54.8665C394.733 50.8738 395.984 47.3908 398.486 44.5874C401.145 41.5291 404.507 40 408.495 40H415.219C416.783 40 418.503 40.3398 420.458 40.9345C422.413 41.5291 424.133 42.3786 425.697 43.483L425.775 43.7379Z" fill="#343232"/>
</g>
<g style="mix-blend-mode:darken" filter="url(#filter5_d_2_29)">
<path d="M131.398 17.5862L130.398 127.586" stroke="#343232"/>
</g>
<defs>
<filter id="filter0_d_2_29" x="3.00098" y="22.0148" width="123.405" height="108.405" filterUnits="userSpaceOnUse" color-interpolation-filters="sRGB">
<feFlood flood-opacity="0" result="BackgroundImageFix"/>
<feColorMatrix in="SourceAlpha" type="matrix" values="0 0 0 0 0 0 0 0 0 0 0 0 0 0 0 0 0 0 127 0" result="hardAlpha"/>
<feOffset dy="4"/>
<feGaussianBlur stdDeviation="2"/>
<feComposite in2="hardAlpha" operator="out"/>
<feColorMatrix type="matrix" values="0 0 0 0 0 0 0 0 0 0 0 0 0 0 0 0 0 0 0.25 0"/>
<feBlend mode="normal" in2="BackgroundImageFix" result="effect1_dropShadow_2_29"/>
<feBlend mode="normal" in="SourceGraphic" in2="effect1_dropShadow_2_29" result="shape"/>
</filter>
<filter id="filter1_d_2_29" x="15.8135" y="37.2561" width="97.6975" height="86.0247" filterUnits="userSpaceOnUse" color-interpolation-filters="sRGB">
<feFlood flood-opacity="0" result="BackgroundImageFix"/>
<feColorMatrix in="SourceAlpha" type="matrix" values="0 0 0 0 0 0 0 0 0 0 0 0 0 0 0 0 0 0 127 0" result="hardAlpha"/>
<feOffset dy="4"/>
<feGaussianBlur stdDeviation="2"/>
<feComposite in2="hardAlpha" operator="out"/>
<feColorMatrix type="matrix" values="0 0 0 0 0 0 0 0 0 0 0 0 0 0 0 0 0 0 0.25 0"/>
<feBlend mode="normal" in2="BackgroundImageFix" result="effect1_dropShadow_2_29"/>
<feBlend mode="normal" in="SourceGraphic" in2="effect1_dropShadow_2_29" result="shape"/>
</filter>
<filter id="filter2_d_2_29" x="29.4133" y="54.021" width="70.4955" height="62.3604" filterUnits="userSpaceOnUse" color-interpolation-filters="sRGB">
<feFlood flood-opacity="0" result="BackgroundImageFix"/>
<feColorMatrix in="SourceAlpha" type="matrix" values="0 0 0 0 0 0 0 0 0 0 0 0 0 0 0 0 0 0 127 0" result="hardAlpha"/>
<feOffset dy="4"/>
<feGaussianBlur stdDeviation="2"/>
<feComposite in2="hardAlpha" operator="out"/>
<feColorMatrix type="matrix" values="0 0 0 0 0 0 0 0 0 0 0 0 0 0 0 0 0 0 0.25 0"/>
<feBlend mode="normal" in2="BackgroundImageFix" result="effect1_dropShadow_2_29"/>
<feBlend mode="normal" in="SourceGraphic" in2="effect1_dropShadow_2_29" result="shape"/>
</filter>
<filter id="filter3_d_2_29" x="46.5906" y="74.4192" width="36.1462" height="32.4132" filterUnits="userSpaceOnUse" color-interpolation-filters="sRGB">
<feFlood flood-opacity="0" result="BackgroundImageFix"/>
<feColorMatrix in="SourceAlpha" type="matrix" values="0 0 0 0 0 0 0 0 0 0 0 0 0 0 0 0 0 0 127 0" result="hardAlpha"/>
<feOffset dy="4"/>
<feGaussianBlur stdDeviation="2"/>
<feComposite in2="hardAlpha" operator="out"/>
<feColorMatrix type="matrix" values="0 0 0 0 0 0 0 0 0 0 0 0 0 0 0 0 0 0 0.25 0"/>
<feBlend mode="normal" in2="BackgroundImageFix" result="effect1_dropShadow_2_29"/>
<feBlend mode="normal" in="SourceGraphic" in2="effect1_dropShadow_2_29" result="shape"/>
</filter>
<filter id="filter4_d_2_29" x="147.792" y="40" width="283" height="78" filterUnits="userSpaceOnUse" color-interpolation-filters="sRGB">
<feFlood flood-opacity="0" result="BackgroundImageFix"/>
<feColorMatrix in="SourceAlpha" type="matrix" values="0 0 0 0 0 0 0 0 0 0 0 0 0 0 0 0 0 0 127 0" result="hardAlpha"/>
<feOffset dy="4"/>
<feGaussianBlur stdDeviation="2"/>
<feComposite in2="hardAlpha" operator="out"/>
<feColorMatrix type="matrix" values="0 0 0 0 0 0 0 0 0 0 0 0 0 0 0 0 0 0 0.25 0"/>
<feBlend mode="normal" in2="BackgroundImageFix" result="effect1_dropShadow_2_29"/>
<feBlend mode="normal" in="SourceGraphic" in2="effect1_dropShadow_2_29" result="shape"/>
</filter>
<filter id="filter5_d_2_29" x="125.898" y="17.5817" width="10" height="118.009" filterUnits="userSpaceOnUse" color-interpolation-filters="sRGB">
<feFlood flood-opacity="0" result="BackgroundImageFix"/>
<feColorMatrix in="SourceAlpha" type="matrix" values="0 0 0 0 0 0 0 0 0 0 0 0 0 0 0 0 0 0 127 0" result="hardAlpha"/>
<feOffset dy="4"/>
<feGaussianBlur stdDeviation="2"/>
<feComposite in2="hardAlpha" operator="out"/>
<feColorMatrix type="matrix" values="0 0 0 0 0 0 0 0 0 0 0 0 0 0 0 0 0 0 0.25 0"/>
<feBlend mode="normal" in2="BackgroundImageFix" result="effect1_dropShadow_2_29"/>
<feBlend mode="normal" in="SourceGraphic" in2="effect1_dropShadow_2_29" result="shape"/>
</filter>
</defs>
</svg>
