<svg width="46" height="45" viewBox="0 0 46 45" fill="none" xmlns="http://www.w3.org/2000/svg">
<path d="M39.0995 6.80432C35.401 3.19496 30.5196 0.949819 25.2968 0.455958C20.074 -0.0379027 14.8371 1.25047 10.489 4.09896C6.14091 6.94744 2.95409 11.1775 1.47794 16.06C0.00178736 20.9424 0.328819 26.1712 2.40265 30.8449C2.6188 31.2793 2.68972 31.7683 2.60552 32.2436L0.621908 41.4883C0.545486 41.8427 0.561091 42.21 0.667323 42.5572C0.773555 42.9043 0.967084 43.2204 1.23052 43.4771C1.44647 43.685 1.7036 43.8483 1.9864 43.9572C2.2692 44.0661 2.57182 44.1184 2.87601 44.1109H3.32684L12.9744 42.2314C13.4647 42.1742 13.962 42.242 14.417 42.4281C19.2374 44.4388 24.6304 44.7559 29.666 43.3246C34.7017 41.8934 39.0646 38.8036 42.0025 34.5878C44.9404 30.3721 46.2692 25.2946 45.7598 20.2307C45.2505 15.1669 42.9349 10.434 39.2122 6.84803L39.0995 6.80432ZM14.1465 24.4414C13.7007 24.4414 13.2649 24.3132 12.8942 24.073C12.5235 23.8329 12.2346 23.4916 12.064 23.0922C11.8934 22.6929 11.8488 22.2534 11.9358 21.8295C12.0227 21.4055 12.2374 21.0161 12.5527 20.7105C12.8679 20.4048 13.2695 20.1967 13.7068 20.1123C14.144 20.028 14.5973 20.0713 15.0092 20.2367C15.421 20.4021 15.7731 20.6822 16.0208 21.0416C16.2684 21.4011 16.4007 21.8236 16.4007 22.2559C16.4007 22.8355 16.1632 23.3914 15.7404 23.8012C15.3177 24.2111 14.7444 24.4414 14.1465 24.4414ZM23.163 24.4414C22.7171 24.4414 22.2813 24.3132 21.9107 24.073C21.54 23.8329 21.2511 23.4916 21.0804 23.0922C20.9098 22.6929 20.8652 22.2534 20.9522 21.8295C21.0392 21.4055 21.2538 21.0161 21.5691 20.7105C21.8843 20.4048 22.286 20.1967 22.7232 20.1123C23.1605 20.028 23.6137 20.0713 24.0256 20.2367C24.4375 20.4021 24.7895 20.6822 25.0372 21.0416C25.2849 21.4011 25.4171 21.8236 25.4171 22.2559C25.4171 22.8355 25.1796 23.3914 24.7569 23.8012C24.3341 24.2111 23.7608 24.4414 23.163 24.4414ZM32.1794 24.4414C31.7336 24.4414 31.2978 24.3132 30.9271 24.073C30.5564 23.8329 30.2675 23.4916 30.0969 23.0922C29.9263 22.6929 29.8816 22.2534 29.9686 21.8295C30.0556 21.4055 30.2703 21.0161 30.5855 20.7105C30.9007 20.4048 31.3024 20.1967 31.7396 20.1123C32.1769 20.028 32.6301 20.0713 33.042 20.2367C33.4539 20.4021 33.8059 20.6822 34.0536 21.0416C34.3013 21.4011 34.4335 21.8236 34.4335 22.2559C34.4335 22.8355 34.196 23.3914 33.7733 23.8012C33.3506 24.2111 32.7772 24.4414 32.1794 24.4414Z" fill="white"/>
</svg>
